<?xml version="1.0" encoding="UTF-8" standalone="no"?>
<!DOCTYPE svg PUBLIC "-//W3C//DTD SVG 1.1//EN" "http://www.w3.org/Graphics/SVG/1.1/DTD/svg11.dtd">
<svg width="100%" height="100%" viewBox="0 0 12 12" version="1.1" xmlns="http://www.w3.org/2000/svg" xmlns:xlink="http://www.w3.org/1999/xlink" xml:space="preserve" xmlns:serif="http://www.serif.com/" style="fill-rule:evenodd;clip-rule:evenodd;stroke-linejoin:round;stroke-miterlimit:2;">
    <path d="M11.469,10.096C11.785,10.448 11.785,10.975 11.469,11.291C11.117,11.643 10.59,11.643 10.273,11.291L6.125,7.108L1.941,11.291C1.59,11.643 1.063,11.643 0.746,11.291C0.395,10.975 0.395,10.448 0.746,10.096L4.93,5.913L0.746,1.729C0.395,1.377 0.395,0.85 0.746,0.534C1.063,0.182 1.59,0.182 1.906,0.534L6.125,4.752L10.309,0.569C10.625,0.217 11.152,0.217 11.469,0.569C11.82,0.885 11.82,1.413 11.469,1.764L7.285,5.913L11.469,10.096Z" style="fill:white;fill-rule:nonzero;"/>
</svg>
