<svg width="12" height="12" viewBox="0 0 12 12" fill="none" xmlns="http://www.w3.org/2000/svg">
<path opacity="0.5" d="M11.4688 10.0962C11.7852 10.4478 11.7852 10.9751 11.4688 11.2915C11.1172 11.6431 10.5898 11.6431 10.2734 11.2915L6.125 7.10791L1.94141 11.2915C1.58984 11.6431 1.0625 11.6431 0.746094 11.2915C0.394531 10.9751 0.394531 10.4478 0.746094 10.0962L4.92969 5.9126L0.746094 1.729C0.394531 1.37744 0.394531 0.850098 0.746094 0.533691C1.0625 0.182129 1.58984 0.182129 1.90625 0.533691L6.125 4.75244L10.3086 0.568848C10.625 0.217285 11.1523 0.217285 11.4688 0.568848C11.8203 0.885254 11.8203 1.4126 11.4688 1.76416L7.28516 5.9126L11.4688 10.0962Z" fill="#8E8E9E"/>
</svg>
