<svg width="3" height="15" viewBox="0 0 3 15" fill="none" xmlns="http://www.w3.org/2000/svg">
<path d="M1.5 12.5C2.16406 12.5 2.75 13.0859 2.75 13.75C2.75 14.4531 2.16406 15 1.5 15C0.796875 15 0.25 14.4531 0.25 13.75C0.25 13.0859 0.796875 12.5 1.5 12.5ZM1.5 6.25C2.16406 6.25 2.75 6.83594 2.75 7.5C2.75 8.20312 2.16406 8.75 1.5 8.75C0.796875 8.75 0.25 8.20312 0.25 7.5C0.25 6.83594 0.796875 6.25 1.5 6.25ZM1.5 2.5C0.796875 2.5 0.25 1.95312 0.25 1.25C0.25 0.585938 0.796875 0 1.5 0C2.16406 0 2.75 0.585938 2.75 1.25C2.75 1.95312 2.16406 2.5 1.5 2.5Z" fill="#8E8E9E"/>
</svg>
