<svg width="22" height="19" viewBox="0 0 22 19" fill="none" xmlns="http://www.w3.org/2000/svg">
<path d="M12.2578 0.867188C12.6875 1.0625 13 1.53125 13 2V17C13 17.5078 12.6875 17.9375 12.2578 18.1719C12.0625 18.25 11.9062 18.25 11.75 18.25C11.4375 18.25 11.125 18.1719 10.8906 17.8594L5.61719 13.1719H2.375C1.32031 13.1719 0.5 12.3516 0.5 11.3359V7.625C0.5 6.60938 1.32031 5.75 2.375 5.75H5.61719L10.8906 1.10156C11.125 0.867188 11.4375 0.75 11.75 0.75C11.9062 0.75 12.0625 0.789062 12.2578 0.867188ZM11.7109 17L11.6719 2.03906L6.08594 7H2.375C2.02344 7 1.75 7.27344 1.75 7.625V11.375C1.75 11.6875 2.02344 12 2.375 12H6.08594L11.7109 17ZM18.4297 3.36719C20.5 4.77344 21.75 7.03906 21.75 9.5C21.75 11.9609 20.5 14.2656 18.4297 15.6719C18.3125 15.75 18.1953 15.75 18.0781 15.75C17.8828 15.75 17.6875 15.6719 17.5703 15.4766C17.375 15.2031 17.4531 14.8125 17.7266 14.6172C19.4453 13.4844 20.5 11.5703 20.5 9.5C20.5 7.46875 19.4453 5.55469 17.7266 4.42188C17.4531 4.22656 17.375 3.83594 17.5703 3.5625C17.7656 3.25 18.1562 3.17188 18.4297 3.36719ZM16.3594 6.49219C17.375 7.19531 18 8.32812 18 9.5C18 10.7109 17.375 11.8438 16.3594 12.5469C16.2422 12.625 16.125 12.625 16.0078 12.625C15.8125 12.625 15.6172 12.5469 15.5 12.3516C15.3047 12.0781 15.3828 11.6875 15.6562 11.4922C16.3203 11.0625 16.75 10.3203 16.75 9.5C16.75 8.71875 16.3203 7.97656 15.6562 7.54688C15.3828 7.35156 15.3047 6.96094 15.5 6.6875C15.6953 6.375 16.0859 6.29688 16.3594 6.49219Z" fill="#8E8E9E"/>
</svg>
