<?xml version="1.0" encoding="UTF-8" standalone="no"?><!DOCTYPE svg PUBLIC "-//W3C//DTD SVG 1.1//EN" "http://www.w3.org/Graphics/SVG/1.1/DTD/svg11.dtd"><svg width="100%" height="100%" viewBox="0 0 32 32" version="1.1" xmlns="http://www.w3.org/2000/svg" xmlns:xlink="http://www.w3.org/1999/xlink" xml:space="preserve" xmlns:serif="http://www.serif.com/" style="fill-rule:evenodd;clip-rule:evenodd;stroke-linejoin:round;stroke-miterlimit:2;"><path d="M16,19.25c-1.688,0 -3,-1.344 -3,-3l0,-5c0,-1.656 1.313,-3 3,-3c1.656,0 3,1.344 3,3l0,5c0,1.688 -1.344,3 -3,3Zm4.75,-5c0.406,0 0.75,0.344 0.75,0.75l0,1.25c0,2.781 -2.094,5.094 -4.75,5.469l0,1.031l1.25,0c0.563,0 1,0.5 0.969,1.063c-0,0.25 -0.219,0.437 -0.469,0.437l-5,0c-0.281,0 -0.5,-0.188 -0.5,-0.438c-0.031,-0.562 0.406,-1.062 1,-1.062l1.25,0l0,-1.094c-2.781,-0.375 -4.75,-2.875 -4.75,-5.656l0,-1c0,-0.406 0.313,-0.75 0.75,-0.75c0.406,0 0.75,0.344 0.75,0.75l0,1.094c0,2.093 1.656,4.031 3.719,4.156c2.344,0.156 4.281,-1.688 4.281,-4l0,-1.25c0,-0.406 0.313,-0.75 0.75,-0.75Z" style="fill:#fff;fill-rule:nonzero;"/></svg>