<?xml version="1.0" encoding="UTF-8" standalone="no"?>
<!DOCTYPE svg PUBLIC "-//W3C//DTD SVG 1.1//EN" "http://www.w3.org/Graphics/SVG/1.1/DTD/svg11.dtd">
<svg width="100%" height="100%" viewBox="0 0 32 32" version="1.1" xmlns="http://www.w3.org/2000/svg" xmlns:xlink="http://www.w3.org/1999/xlink" xml:space="preserve" xmlns:serif="http://www.serif.com/" style="fill-rule:evenodd;clip-rule:evenodd;stroke-linejoin:round;stroke-miterlimit:2;">
    <path d="M16,19.25C14.312,19.25 13,17.906 13,16.25L13,11.25C13,9.594 14.313,8.25 16,8.25C17.656,8.25 19,9.594 19,11.25L19,16.25C19,17.938 17.656,19.25 16,19.25ZM20.75,14.25C21.156,14.25 21.5,14.594 21.5,15L21.5,16.25C21.5,19.031 19.406,21.344 16.75,21.719L16.75,22.75L18,22.75C18.563,22.75 19,23.25 18.969,23.813C18.969,24.063 18.75,24.25 18.5,24.25L13.5,24.25C13.219,24.25 13,24.062 13,23.812C12.969,23.25 13.406,22.75 14,22.75L15.25,22.75L15.25,21.656C12.469,21.281 10.5,18.781 10.5,16L10.5,15C10.5,14.594 10.813,14.25 11.25,14.25C11.656,14.25 12,14.594 12,15L12,16.094C12,18.187 13.656,20.125 15.719,20.25C18.063,20.406 20,18.562 20,16.25L20,15C20,14.594 20.313,14.25 20.75,14.25Z" style="fill-rule:nonzero;"/>
</svg>
