<?xml version="1.0" encoding="UTF-8" standalone="no"?>
<!DOCTYPE svg PUBLIC "-//W3C//DTD SVG 1.1//EN" "http://www.w3.org/Graphics/SVG/1.1/DTD/svg11.dtd">
<svg width="100%" height="100%" viewBox="0 0 24 24" version="1.1" xmlns="http://www.w3.org/2000/svg" xmlns:xlink="http://www.w3.org/1999/xlink" xml:space="preserve" xmlns:serif="http://www.serif.com/" style="fill-rule:evenodd;clip-rule:evenodd;stroke-linejoin:round;stroke-miterlimit:2;">
    <path d="M11,4.91C11,4.475 10.483,4.247 10.162,4.541L6.676,7.737C6.491,7.906 6.25,8 6,8L4,8C3.448,8 3,8.448 3,9L3,15C3,15.552 3.448,16 4,16L6,16C6.25,16 6.491,16.094 6.676,16.263L10.162,19.459C10.483,19.753 11,19.525 11,19.09L11,4.91ZM8.811,3.067C10.414,1.597 13,2.735 13,4.91L13,19.09C13,21.265 10.414,22.403 8.811,20.933L5.611,18L4,18C2.343,18 1,16.657 1,15L1,9C1,7.343 2.343,6 4,6L5.611,6L8.811,3.067ZM20.317,6.357C20.802,6.093 21.409,6.273 21.672,6.758C22.519,8.318 23,10.104 23,12C23,13.851 22.542,15.597 21.732,17.13C21.474,17.618 20.869,17.805 20.381,17.547C19.893,17.29 19.706,16.685 19.964,16.196C20.625,14.944 21,13.517 21,12C21,10.446 20.606,8.986 19.915,7.713C19.651,7.227 19.831,6.62 20.317,6.357ZM15.799,7.9C16.241,7.569 16.868,7.658 17.2,8.099C18.016,9.186 18.5,10.538 18.5,12C18.5,13.313 18.109,14.537 17.439,15.56C17.136,16.022 16.516,16.151 16.054,15.848C15.592,15.545 15.463,14.925 15.766,14.464C16.23,13.756 16.5,12.911 16.5,12C16.5,10.986 16.165,10.053 15.6,9.301C15.269,8.859 15.358,8.232 15.799,7.9Z" style="fill:rgb(39,74,137);"/>
</svg>
