<svg width="14" height="13" viewBox="0 0 14 13" fill="none" xmlns="http://www.w3.org/2000/svg">
<path d="M6.97656 0.5C7.21094 0.5 7.39844 0.640625 7.49219 0.828125L9.10938 4.13281L12.6953 4.67188C12.9062 4.69531 13.0703 4.85938 13.1406 5.04688C13.2109 5.25781 13.1641 5.46875 13 5.63281L10.3984 8.21094L11.0078 11.8438C11.0547 12.0547 10.9609 12.2891 10.7969 12.4062C10.6094 12.5234 10.375 12.5469 10.1875 12.4531L6.97656 10.7188L3.76562 12.4531C3.57812 12.5469 3.36719 12.5234 3.17969 12.4062C3.01562 12.2891 2.92188 12.0547 2.94531 11.8438L3.57812 8.21094L0.976562 5.63281C0.8125 5.46875 0.765625 5.25781 0.835938 5.04688C0.90625 4.85938 1.07031 4.69531 1.28125 4.67188L4.86719 4.13281L6.48438 0.828125C6.57812 0.640625 6.76562 0.5 6.97656 0.5ZM6.97656 2.35156L5.75781 4.90625C5.66406 5.07031 5.52344 5.1875 5.33594 5.21094L2.54688 5.60938L4.5625 7.60156C4.70312 7.74219 4.75 7.92969 4.72656 8.11719L4.25781 10.9062L6.71875 9.59375C6.88281 9.5 7.09375 9.5 7.25781 9.59375L9.71875 10.9062L9.25 8.11719C9.20312 7.92969 9.27344 7.74219 9.41406 7.60156L11.4062 5.60938L8.64062 5.21094C8.45312 5.1875 8.28906 5.07031 8.21875 4.90625L6.97656 2.35156Z" fill="#8E8E9E"/>
</svg>
