<svg width="11" height="15" viewBox="0 0 11 15" fill="none" xmlns="http://www.w3.org/2000/svg">
<path d="M9.875 0C10.1875 0 10.5 0.3125 10.5 0.625V14.375C10.5 14.7266 10.1875 15 9.875 15C9.52344 15 9.25 14.7266 9.25 14.375V9.14062L2.41406 14.7656C2.21875 14.9219 1.94531 15 1.67188 15C1.28125 15 0.5 14.6875 0.5 13.75V1.28906C0.5 0.351562 1.28125 0 1.67188 0C1.94531 0 2.21875 0.117188 2.41406 0.273438L9.25 5.89844V0.625C9.25 0.3125 9.52344 0 9.875 0ZM1.75 13.7891L9.21094 7.5L1.75 1.25V13.7891Z" fill="#8E8E9E"/>
</svg>
