<svg width="12" height="13" viewBox="0 0 12 13" fill="none" xmlns="http://www.w3.org/2000/svg">
<path d="M6 0.5C9.30469 0.5 12 3.19531 12 6.5C12 9.82812 9.30469 12.5 6 12.5C2.67188 12.5 0 9.82812 0 6.5C0 3.19531 2.67188 0.5 6 0.5ZM6 11.375C6.16406 11.375 6.60938 11.2109 7.10156 10.25C7.3125 9.82812 7.47656 9.33594 7.61719 8.75H4.35938C4.5 9.33594 4.66406 9.82812 4.875 10.25C5.36719 11.2109 5.8125 11.375 6 11.375ZM4.17188 7.625H7.80469C7.85156 7.27344 7.875 6.89844 7.875 6.5C7.875 6.125 7.85156 5.75 7.80469 5.375H4.17188C4.125 5.75 4.125 6.125 4.125 6.5C4.125 6.89844 4.125 7.27344 4.17188 7.625ZM7.61719 4.25C7.47656 3.6875 7.3125 3.19531 7.10156 2.77344C6.60938 1.8125 6.16406 1.625 6 1.625C5.8125 1.625 5.36719 1.8125 4.875 2.77344C4.66406 3.19531 4.5 3.6875 4.35938 4.25H7.61719ZM8.92969 5.375C8.97656 5.75 9 6.125 9 6.5C9 6.89844 8.97656 7.27344 8.92969 7.625H10.7344C10.8281 7.27344 10.875 6.89844 10.875 6.5C10.875 6.125 10.8281 5.75 10.7344 5.375H8.92969ZM8.01562 2.07031C8.34375 2.67969 8.60156 3.42969 8.76562 4.25H10.3125C9.82031 3.28906 9 2.51562 8.01562 2.07031ZM3.96094 2.07031C2.97656 2.51562 2.15625 3.28906 1.66406 4.25H3.21094C3.375 3.42969 3.63281 2.67969 3.96094 2.07031ZM1.125 6.5C1.125 6.89844 1.14844 7.27344 1.24219 7.625H3.04688C3 7.27344 3 6.89844 3 6.5C3 6.125 3 5.75 3.04688 5.375H1.24219C1.14844 5.75 1.125 6.125 1.125 6.5ZM10.3125 8.75H8.76562C8.60156 9.59375 8.34375 10.3438 8.01562 10.9531C9 10.5078 9.82031 9.73438 10.3125 8.75ZM3.21094 8.75H1.66406C2.15625 9.73438 2.97656 10.5078 3.96094 10.9531C3.63281 10.3438 3.375 9.59375 3.21094 8.75Z" fill="#8E8E9E"/>
</svg>
